<svg width="24" height="24" viewBox="0 0 24 24" fill="none" xmlns="http://www.w3.org/2000/svg">
<mask id="mask0_194_1138" style="mask-type:alpha" maskUnits="userSpaceOnUse" x="0" y="0" width="24" height="24">
<rect width="24" height="24" rx="12" fill="#D9D9D9"/>
</mask>
<g mask="url(#mask0_194_1138)">
<path d="M12 21C11.4477 21 11 20.5523 11 20V16C11 15.4477 11.4477 15 12 15C12.5523 15 13 15.4477 13 16C13 16.5523 13.4477 17 14 17H20C20.5523 17 21 17.4477 21 18C21 18.5523 20.5523 19 20 19H14C13.4477 19 13 19.4477 13 20C13 20.5523 12.5523 21 12 21ZM4 19C3.44772 19 3 18.5523 3 18C3 17.4477 3.44772 17 4 17H8C8.55228 17 9 17.4477 9 18C9 18.5523 8.55228 19 8 19H4ZM8 15C7.44772 15 7 14.5523 7 14C7 13.4477 6.55228 13 6 13H4C3.44772 13 3 12.5523 3 12C3 11.4477 3.44772 11 4 11H6C6.55228 11 7 10.5523 7 10C7 9.44772 7.44772 9 8 9C8.55228 9 9 9.44772 9 10V14C9 14.5523 8.55228 15 8 15ZM12 13C11.4477 13 11 12.5523 11 12C11 11.4477 11.4477 11 12 11H20C20.5523 11 21 11.4477 21 12C21 12.5523 20.5523 13 20 13H12ZM16 9C15.4477 9 15 8.55228 15 8V4C15 3.44772 15.4477 3 16 3C16.5523 3 17 3.44772 17 4C17 4.55228 17.4477 5 18 5H20C20.5523 5 21 5.44772 21 6C21 6.55228 20.5523 7 20 7H18C17.4477 7 17 7.44772 17 8C17 8.55228 16.5523 9 16 9ZM4 7C3.44772 7 3 6.55228 3 6C3 5.44772 3.44772 5 4 5H12C12.5523 5 13 5.44772 13 6C13 6.55228 12.5523 7 12 7H4Z" fill="white"/>
</g>
</svg>
