<svg width="8" height="8" viewBox="0 0 8 8" fill="none" xmlns="http://www.w3.org/2000/svg">
<g id="group">
<mask id="mask0_65_991" style="mask-type:alpha" maskUnits="userSpaceOnUse" x="0" y="0" width="8" height="8">
<rect id="Bounding box" width="8" height="8" fill="#D9D9D9"/>
</mask>
<g mask="url(#mask0_65_991)">
<path id="group_2" d="M0.333328 6.66665V5.73331C0.333328 5.54442 0.381939 5.37081 0.479162 5.21248C0.576384 5.05415 0.70555 4.93331 0.866662 4.84998C1.21111 4.67776 1.56111 4.54859 1.91666 4.46248C2.27222 4.37637 2.63333 4.33331 2.99999 4.33331C3.36666 4.33331 3.72777 4.37637 4.08333 4.46248C4.43888 4.54859 4.78888 4.67776 5.13333 4.84998C5.29444 4.93331 5.42361 5.05415 5.52083 5.21248C5.61805 5.37081 5.66666 5.54442 5.66666 5.73331V6.66665H0.333328ZM6.33333 6.66665V5.66665C6.33333 5.4222 6.26527 5.18748 6.12916 4.96248C5.99305 4.73748 5.8 4.54442 5.55 4.38331C5.83333 4.41665 6.1 4.47359 6.35 4.55415C6.6 4.6347 6.83333 4.73331 7.04999 4.84998C7.25 4.96109 7.40277 5.0847 7.50833 5.22081C7.61388 5.35692 7.66666 5.50554 7.66666 5.66665V6.66665H6.33333ZM2.99999 3.99998C2.63333 3.99998 2.31944 3.86942 2.05833 3.60831C1.79722 3.3472 1.66666 3.03331 1.66666 2.66665C1.66666 2.29998 1.79722 1.98609 2.05833 1.72498C2.31944 1.46387 2.63333 1.33331 2.99999 1.33331C3.36666 1.33331 3.68055 1.46387 3.94166 1.72498C4.20277 1.98609 4.33333 2.29998 4.33333 2.66665C4.33333 3.03331 4.20277 3.3472 3.94166 3.60831C3.68055 3.86942 3.36666 3.99998 2.99999 3.99998ZM6.33333 2.66665C6.33333 3.03331 6.20277 3.3472 5.94166 3.60831C5.68055 3.86942 5.36666 3.99998 5 3.99998C4.93888 3.99998 4.86111 3.99304 4.76666 3.97915C4.67222 3.96526 4.59444 3.94998 4.53333 3.93331C4.68333 3.75554 4.79861 3.55831 4.87916 3.34165C4.95972 3.12498 5 2.89998 5 2.66665C5 2.43331 4.95972 2.20831 4.87916 1.99165C4.79861 1.77498 4.68333 1.57776 4.53333 1.39998C4.61111 1.3722 4.68888 1.35415 4.76666 1.34581C4.84444 1.33748 4.92222 1.33331 5 1.33331C5.36666 1.33331 5.68055 1.46387 5.94166 1.72498C6.20277 1.98609 6.33333 2.29998 6.33333 2.66665ZM0.999995 5.99998H5V5.73331C5 5.6722 4.98472 5.61665 4.95416 5.56665C4.92361 5.51665 4.88333 5.47776 4.83333 5.44998C4.53333 5.29998 4.23055 5.18748 3.925 5.11248C3.61944 5.03748 3.31111 4.99998 2.99999 4.99998C2.68888 4.99998 2.38055 5.03748 2.07499 5.11248C1.76944 5.18748 1.46666 5.29998 1.16666 5.44998C1.11666 5.47776 1.07638 5.51665 1.04583 5.56665C1.01527 5.61665 0.999995 5.6722 0.999995 5.73331V5.99998ZM2.99999 3.33331C3.18333 3.33331 3.34027 3.26804 3.47083 3.13748C3.60138 3.00692 3.66666 2.84998 3.66666 2.66665C3.66666 2.48331 3.60138 2.32637 3.47083 2.19581C3.34027 2.06526 3.18333 1.99998 2.99999 1.99998C2.81666 1.99998 2.65972 2.06526 2.52916 2.19581C2.39861 2.32637 2.33333 2.48331 2.33333 2.66665C2.33333 2.84998 2.39861 3.00692 2.52916 3.13748C2.65972 3.26804 2.81666 3.33331 2.99999 3.33331Z" fill="#1C1B1F"/>
</g>
</g>
</svg>
