<svg width="8" height="8" viewBox="0 0 8 8" fill="none" xmlns="http://www.w3.org/2000/svg">
<g id="schedule">
<mask id="mask0_65_988" style="mask-type:alpha" maskUnits="userSpaceOnUse" x="0" y="0" width="8" height="8">
<rect id="Bounding box" width="8" height="8" fill="#D9D9D9"/>
</mask>
<g mask="url(#mask0_65_988)">
<path id="schedule_2" d="M5.1 5.56669L5.56667 5.10002L4.33334 3.86669V2.33335H3.66667V4.13335L5.1 5.56669ZM4 7.33335C3.53889 7.33335 3.10556 7.24585 2.7 7.07085C2.29445 6.89585 1.94167 6.65835 1.64167 6.35835C1.34167 6.05835 1.10417 5.70558 0.929172 5.30002C0.754172 4.89446 0.666672 4.46113 0.666672 4.00002C0.666672 3.53891 0.754172 3.10558 0.929172 2.70002C1.10417 2.29446 1.34167 1.94169 1.64167 1.64169C1.94167 1.34169 2.29445 1.10419 2.7 0.929187C3.10556 0.754187 3.53889 0.666687 4 0.666687C4.46112 0.666687 4.89445 0.754187 5.3 0.929187C5.70556 1.10419 6.05834 1.34169 6.35834 1.64169C6.65834 1.94169 6.89584 2.29446 7.07084 2.70002C7.24584 3.10558 7.33334 3.53891 7.33334 4.00002C7.33334 4.46113 7.24584 4.89446 7.07084 5.30002C6.89584 5.70558 6.65834 6.05835 6.35834 6.35835C6.05834 6.65835 5.70556 6.89585 5.3 7.07085C4.89445 7.24585 4.46112 7.33335 4 7.33335ZM4 6.66669C4.73889 6.66669 5.36806 6.40696 5.88751 5.88752C6.40695 5.36808 6.66667 4.73891 6.66667 4.00002C6.66667 3.26113 6.40695 2.63196 5.88751 2.11252C5.36806 1.59308 4.73889 1.33335 4 1.33335C3.26112 1.33335 2.63195 1.59308 2.11251 2.11252C1.59306 2.63196 1.33334 3.26113 1.33334 4.00002C1.33334 4.73891 1.59306 5.36808 2.11251 5.88752C2.63195 6.40696 3.26112 6.66669 4 6.66669Z" fill="#1C1B1F"/>
</g>
</g>
</svg>
